<svg xmlns="http://www.w3.org/2000/svg" xmlns:xlink="http://www.w3.org/1999/xlink" zoomAndPan="magnify" preserveAspectRatio="xMidYMid meet" version="1.0" viewBox="78.21 190.3 230.96 109.16">
  <defs>
    <g/>
  </defs>
  <g fill="#000000" fill-opacity="1">
    <g transform="translate(125.662921, 298.451275)">
      <g>
        <path d="M 4.734375 0 L 4.734375 -107.15625 L 26.203125 -107.15625 L 26.203125 -18.21875 L 48.28125 -18.21875 L 48.28125 0 Z M 4.734375 0 "/>
      </g>
    </g>
  </g>
  <g fill="#000000" fill-opacity="1">
    <g transform="translate(175.187133, 298.451275)">
      <g>
        <path d="M 3.75 0 L 3.75 -107.15625 L 24.453125 -107.15625 L 24.453125 0 Z M 3.75 0 "/>
      </g>
    </g>
  </g>
  <g fill="#000000" fill-opacity="1">
    <g transform="translate(203.504506, 298.451275)">
      <g>
        <path d="M 30.1875 1 C 20.457031 1 13.429688 -1.410156 9.109375 -6.234375 C 4.785156 -11.054688 2.625 -18.832031 2.625 -29.5625 L 2.625 -40.046875 L 23.703125 -40.046875 L 23.703125 -26.703125 C 23.703125 -21.378906 25.40625 -18.71875 28.8125 -18.71875 C 30.726562 -18.71875 32.0625 -19.273438 32.8125 -20.390625 C 33.5625 -21.515625 33.9375 -23.410156 33.9375 -26.078125 C 33.9375 -29.566406 33.519531 -32.453125 32.6875 -34.734375 C 31.851562 -37.023438 30.789062 -38.941406 29.5 -40.484375 C 28.207031 -42.023438 25.898438 -44.414062 22.578125 -47.65625 L 13.34375 -56.890625 C 6.195312 -63.867188 2.625 -71.601562 2.625 -80.09375 C 2.625 -89.238281 4.722656 -96.203125 8.921875 -100.984375 C 13.117188 -105.765625 19.25 -108.15625 27.3125 -108.15625 C 36.96875 -108.15625 43.914062 -105.597656 48.15625 -100.484375 C 52.394531 -95.367188 54.515625 -87.363281 54.515625 -76.46875 L 32.6875 -76.46875 L 32.5625 -83.828125 C 32.5625 -85.242188 32.164062 -86.367188 31.375 -87.203125 C 30.582031 -88.035156 29.476562 -88.453125 28.0625 -88.453125 C 26.40625 -88.453125 25.160156 -87.992188 24.328125 -87.078125 C 23.492188 -86.160156 23.078125 -84.910156 23.078125 -83.328125 C 23.078125 -79.835938 25.070312 -76.222656 29.0625 -72.484375 L 41.546875 -60.5 C 44.453125 -57.675781 46.859375 -54.992188 48.765625 -52.453125 C 50.679688 -49.921875 52.222656 -46.925781 53.390625 -43.46875 C 54.554688 -40.019531 55.140625 -35.925781 55.140625 -31.1875 C 55.140625 -20.625 53.203125 -12.617188 49.328125 -7.171875 C 45.460938 -1.722656 39.082031 1 30.1875 1 Z M 30.1875 1 "/>
      </g>
    </g>
  </g>
  <g fill="#000000" fill-opacity="1">
    <g transform="translate(261.012472, 298.451275)">
      <g>
        <path d="M 13.96875 0 L 13.96875 -86.578125 L 1.25 -86.578125 L 1.25 -107.15625 L 48.15625 -107.15625 L 48.15625 -86.578125 L 35.421875 -86.578125 L 35.421875 0 Z M 13.96875 0 "/>
      </g>
    </g>
  </g>
  <g fill="#000000" fill-opacity="1">
    <g transform="translate(115.97919, 298.488584)">
      <g>
        <path d="M 0 -1.671875 L -37.71875 -1.671875 L -37.71875 -13.171875 L -14.703125 -16.328125 L -37.71875 -19.5 L -37.71875 -31.078125 L 0 -31.078125 L 0 -24.1875 L -27.171875 -24.1875 L 0 -19.84375 L 0 -13.078125 L -27.171875 -8.46875 L 0 -8.46875 Z M 0 -1.671875 "/>
      </g>
    </g>
  </g>
  <g fill="#000000" fill-opacity="1">
    <g transform="translate(115.97919, 265.740333)">
      <g>
        <path d="M 0 -6.234375 L -12.421875 -6.234375 L -37.71875 -0.21875 L -37.71875 -7.6875 L -24.9375 -9.796875 L -37.71875 -11.90625 L -37.71875 -19.359375 L -12.421875 -13.34375 L 0 -13.34375 Z M 0 -6.234375 "/>
      </g>
    </g>
  </g>
  <g fill="#000000" fill-opacity="1">
    <g transform="translate(115.97919, 246.161622)">
      <g/>
    </g>
  </g>
  <g fill="#000000" fill-opacity="1">
    <g transform="translate(115.97919, 235.889383)">
      <g>
        <path d="M 0 -4.921875 L -30.46875 -4.921875 L -30.46875 -0.4375 L -37.71875 -0.4375 L -37.71875 -16.953125 L -30.46875 -16.953125 L -30.46875 -12.46875 L 0 -12.46875 Z M 0 -4.921875 "/>
      </g>
    </g>
  </g>
  <g fill="#000000" fill-opacity="1">
    <g transform="translate(115.97919, 218.505591)">
      <g>
        <path d="M 0 -5.140625 L -37.765625 -0.484375 L -37.765625 -7.6875 L -12.078125 -10.453125 L -37.765625 -12.90625 L -37.765625 -20.109375 L 0 -15.453125 Z M 0 -5.140625 "/>
      </g>
    </g>
  </g>
</svg>
